# xmcd
#
# Track frame offsets:
#	150
#	12563
#	25054
#	47187
#
# Disc length: 921 seconds
#
# Revision: 1
# Processed by: cddbd v1.5PL3 Copyright (c) Steve Scherf et al.
# Submitted via: CDex 1.50Beta5
#
DISCID=2b039704
DTITLE=長崎みなみ 和田カヨ - まじかるぶっくま〜く
DYEAR=1900
DGENRE=Anime
TTITLE0=まじかるぶっくま〜く にゅ〜バージョン
TTITLE1=まじかるぶっくま〜く にゅ〜バージョン (カラオケ.Ver)
TTITLE2=まじかるぶっくま〜く にゅ〜バージョン (ろんぐ.Ver)
TTITLE3=まじかるぶっくま〜く にゅ〜バージョン(からおけ-ろんぐVer)
EXTD=
EXTT0=
EXTT1=
EXTT2=
EXTT3=
PLAYORDER=
